<?xml version="1.0"?>
<svg xmlns:rdf="http://www.w3.org/1999/02/22-rdf-syntax-ns#" xmlns="http://www.w3.org/2000/svg" xmlns:cc="http://creativecommons.org/ns#" xmlns:dc="http://purl.org/dc/elements/1.1/" xmlns:svg="http://www.w3.org/2000/svg" id="svg2" viewBox="0 0 492 779" version="1.1">
  <g id="layer2" transform="translate(-555.19 -353.77)">
    <g id="g58">
      <rect id="rect3134" y="394.77" width="41" height="41" x="596.19"/>
      <rect id="rect3136" y="435.77" width="41" height="41" x="637.19"/>
      <rect id="rect3138" y="476.77" width="41" height="41" x="678.19"/>
      <rect id="rect3140" y="517.77" width="41" height="41" x="719.19"/>
      <rect id="rect3142" y="558.77" width="41" height="41" x="760.19"/>
      <rect id="rect3144" y="599.77" width="41" height="41" x="801.19"/>
      <rect id="rect3146" y="640.77" width="41" height="41" x="842.19"/>
      <rect id="rect3148" y="681.77" width="41" height="41" x="883.19"/>
      <rect id="rect3150" y="722.77" width="41" height="41" x="924.19"/>
      <rect id="rect3152" y="763.77" width="41" height="41" x="965.19"/>
      <rect id="rect3154" y="804.77" width="41" height="41" x="1006.2"/>
      <rect id="rect3156" y="845.77" width="41" height="41" x="1006.2"/>
      <rect id="rect3158" y="845.77" width="41" height="41" x="965.19"/>
      <rect id="rect3160" y="845.77" width="41" height="41" x="924.19"/>
      <rect id="rect3162" y="845.77" width="41" height="41" x="883.19"/>
      <rect id="rect3164" y="845.77" width="41" height="41" x="842.19"/>
      <rect id="rect3166" y="886.77" width="41" height="41" x="842.19"/>
      <rect id="rect3168" y="927.77" width="41" height="41" x="883.19"/>
      <rect id="rect3170" y="968.77" width="41" height="41" x="883.19"/>
      <rect id="rect3172" y="1009.8" width="41" height="41" x="924.19"/>
      <rect id="rect3174" y="1050.8" width="41" height="41" x="924.19"/>
      <rect id="rect3176" y="1091.8" width="41" height="41" x="883.19"/>
      <rect id="rect3178" y="1091.8" width="41" height="41" x="842.19"/>
      <rect id="rect3180" y="1050.8" width="41" height="41" x="801.19"/>
      <rect id="rect3182" y="1009.8" width="41" height="41" x="801.19"/>
      <rect id="rect3184" y="968.77" width="41" height="41" x="760.19"/>
      <rect id="rect3186" y="927.77" width="41" height="41" x="760.19"/>
      <rect id="rect3188" y="886.77" width="41" height="41" x="719.19"/>
      <rect id="rect3190" y="927.77" width="41" height="41" x="678.19"/>
      <rect id="rect3192" y="968.77" width="41" height="41" x="637.19"/>
      <rect id="rect3194" y="1009.8" width="41" height="41" x="596.19"/>
      <rect id="rect3196" y="1009.8" width="41" height="41" x="555.19"/>
      <rect id="rect3198" y="968.77" width="41" height="41" x="555.19"/>
      <rect id="rect3200" y="927.77" width="41" height="41" x="555.19"/>
      <rect id="rect3202" y="886.77" width="41" height="41" x="555.19"/>
      <rect id="rect3204" y="845.77" width="41" height="41" x="555.19"/>
      <rect id="rect3206" y="804.77" width="41" height="41" x="555.19"/>
      <rect id="rect3208" y="763.77" width="41" height="41" x="555.19"/>
      <rect id="rect3210" y="722.77" width="41" height="41" x="555.19"/>
      <rect id="rect3212" y="681.77" width="41" height="41" x="555.19"/>
      <rect id="rect3214" y="640.77" width="41" height="41" x="555.19"/>
      <rect id="rect3216" y="599.77" width="41" height="41" x="555.19"/>
      <rect id="rect3218" y="558.77" width="41" height="41" x="555.19"/>
      <rect id="rect3220" y="517.77" width="41" height="41" x="555.19"/>
      <rect id="rect3222" y="476.77" width="41" height="41" x="555.19"/>
      <rect id="rect3224" y="435.77" width="41" height="41" x="555.19"/>
      <rect id="rect3226" y="394.77" width="41" height="41" x="555.19"/>
      <rect id="rect3228" y="353.77" width="41" height="41" x="555.19"/>
    </g>
    <rect id="rect56" height="41" width="41" y="435.77" x="596.19" fill="#fff"/>
    <rect id="rect108" height="41" width="41" y="476.77" x="637.19" fill="#fff"/>
    <rect id="rect110" height="41" width="41" y="476.77" x="596.19" fill="#fff"/>
    <rect id="rect112" height="41" width="41" y="517.77" x="596.19" fill="#fff"/>
    <rect id="rect114" height="41" width="41" y="517.77" x="637.19" fill="#fff"/>
    <rect id="rect116" height="41" width="41" y="517.77" x="678.19" fill="#fff"/>
    <rect id="rect118" height="41" width="41" y="558.77" x="596.19" fill="#fff"/>
    <rect id="rect120" height="41" width="41" y="558.77" x="637.19" fill="#fff"/>
    <rect id="rect122" height="41" width="41" y="558.77" x="678.19" fill="#fff"/>
    <rect id="rect124" height="41" width="41" y="558.77" x="719.19" fill="#fff"/>
    <rect id="rect126" height="41" width="41" y="968.77" x="596.19" fill="#fff"/>
    <rect id="rect128" height="41" width="41" y="927.77" x="596.19" fill="#fff"/>
    <rect id="rect130" height="41" width="41" y="927.77" x="637.19" fill="#fff"/>
    <rect id="rect132" height="41" width="41" y="927.77" x="801.19" fill="#fff"/>
    <rect id="rect134" height="41" width="41" y="968.77" x="842.19" fill="#fff"/>
    <rect id="rect136" height="41" width="41" y="968.77" x="801.19" fill="#fff"/>
    <rect id="rect138" height="41" width="41" y="927.77" x="842.19" fill="#fff"/>
    <rect id="rect140" height="41" width="41" y="1009.8" x="842.19" fill="#fff"/>
    <rect id="rect142" height="41" width="41" y="1009.8" x="883.19" fill="#fff"/>
    <rect id="rect144" height="41" width="41" y="1050.8" x="842.19" fill="#fff"/>
    <rect id="rect146" height="41" width="41" y="1050.8" x="883.19" fill="#fff"/>
    <rect id="rect148" height="41" width="41" y="886.77" x="760.19" fill="#fff"/>
    <rect id="rect150" height="41" width="41" y="886.77" x="801.19" fill="#fff"/>
    <rect id="rect152" height="41" width="41" y="886.77" x="678.19" fill="#fff"/>
    <rect id="rect154" height="41" width="41" y="886.77" x="637.19" fill="#fff"/>
    <rect id="rect156" height="41" width="41" y="886.77" x="596.19" fill="#fff"/>
    <rect id="rect158" height="41" width="41" y="845.77" x="596.19" fill="#fff"/>
    <rect id="rect160" height="41" width="41" y="845.77" x="637.19" fill="#fff"/>
    <rect id="rect162" height="41" width="41" y="845.77" x="678.19" fill="#fff"/>
    <rect id="rect164" height="41" width="41" y="845.77" x="719.19" fill="#fff"/>
    <rect id="rect166" height="41" width="41" y="845.77" x="760.19" fill="#fff"/>
    <rect id="rect168" height="41" width="41" y="845.77" x="801.19" fill="#fff"/>
    <rect id="rect170" height="41" width="41" y="804.77" x="965.19" fill="#fff"/>
    <rect id="rect172" height="41" width="41" y="804.77" x="924.19" fill="#fff"/>
    <rect id="rect174" height="41" width="41" y="804.77" x="883.19" fill="#fff"/>
    <rect id="rect176" height="41" width="41" y="804.77" x="842.19" fill="#fff"/>
    <rect id="rect178" height="41" width="41" y="804.77" x="801.19" fill="#fff"/>
    <rect id="rect180" height="41" width="41" y="804.77" x="760.19" fill="#fff"/>
    <rect id="rect182" height="41" width="41" y="804.77" x="719.19" fill="#fff"/>
    <rect id="rect184" height="41" width="41" y="804.77" x="678.19" fill="#fff"/>
    <rect id="rect186" height="41" width="41" y="804.77" x="637.19" fill="#fff"/>
    <rect id="rect188" height="41" width="41" y="804.77" x="596.19" fill="#fff"/>
    <rect id="rect190" height="41" width="41" y="763.77" x="596.19" fill="#fff"/>
    <rect id="rect192" height="41" width="41" y="763.77" x="637.19" fill="#fff"/>
    <rect id="rect194" height="41" width="41" y="722.77" x="596.19" fill="#fff"/>
    <rect id="rect196" height="41" width="41" y="681.77" x="596.19" fill="#fff"/>
    <rect id="rect198" height="41" width="41" y="722.77" x="637.19" fill="#fff"/>
    <rect id="rect200" height="41" width="41" y="763.77" x="678.19" fill="#fff"/>
    <rect id="rect202" height="41" width="41" y="763.77" x="719.19" fill="#fff"/>
    <rect id="rect204" height="41" width="41" y="722.77" x="678.19" fill="#fff"/>
    <rect id="rect206" height="41" width="41" y="681.77" x="637.19" fill="#fff"/>
    <rect id="rect208" height="41" width="41" y="640.77" x="596.19" fill="#fff"/>
    <rect id="rect210" height="41" width="41" y="599.77" x="596.19" fill="#fff"/>
    <rect id="rect212" height="41" width="41" y="640.77" x="637.19" fill="#fff"/>
    <rect id="rect214" height="41" width="41" y="681.77" x="678.19" fill="#fff"/>
    <rect id="rect216" height="41" width="41" y="722.77" x="719.19" fill="#fff"/>
    <rect id="rect218" height="41" width="41" y="763.77" x="760.19" fill="#fff"/>
    <rect id="rect220" height="41" width="41" y="599.77" x="637.19" fill="#fff"/>
    <rect id="rect222" height="41" width="41" y="640.77" x="678.19" fill="#fff"/>
    <rect id="rect224" height="41" width="41" y="681.77" x="719.19" fill="#fff"/>
    <rect id="rect226" height="41" width="41" y="722.77" x="760.19" fill="#fff"/>
    <rect id="rect228" height="41" width="41" y="763.77" x="801.19" fill="#fff"/>
    <rect id="rect230" height="41" width="41" y="763.77" x="842.19" fill="#fff"/>
    <rect id="rect232" height="41" width="41" y="763.77" x="883.19" fill="#fff"/>
    <rect id="rect234" height="41" width="41" y="763.77" x="924.19" fill="#fff"/>
    <rect id="rect236" height="41" width="41" y="722.77" x="883.19" fill="#fff"/>
    <rect id="rect238" height="41" width="41" y="681.77" x="842.19" fill="#fff"/>
    <rect id="rect240" height="41" width="41" y="640.77" x="801.19" fill="#fff"/>
    <rect id="rect242" height="41" width="41" y="599.77" x="760.19" fill="#fff"/>
    <rect id="rect244" height="41" width="41" y="599.77" x="719.19" fill="#fff"/>
    <rect id="rect246" height="41" width="41" y="640.77" x="760.19" fill="#fff"/>
    <rect id="rect248" height="41" width="41" y="681.77" x="801.19" fill="#fff"/>
    <rect id="rect250" height="41" width="41" y="722.77" x="842.19" fill="#fff"/>
    <rect id="rect252" height="41" width="41" y="722.77" x="801.19" fill="#fff"/>
    <rect id="rect254" height="41" width="41" y="681.77" x="760.19" fill="#fff"/>
    <rect id="rect256" height="41" width="41" y="640.77" x="719.19" fill="#fff"/>
    <rect id="rect258" height="41" width="41" y="599.77" x="678.19" fill="#fff"/>
  </g>
  <metadata>
    <rdf:RDF>
      <cc:Work>
        <dc:format>image/svg+xml</dc:format>
        <dc:type rdf:resource="http://purl.org/dc/dcmitype/StillImage"/>
        <cc:license rdf:resource="http://creativecommons.org/licenses/publicdomain/"/>
        <dc:publisher>
          <cc:Agent rdf:about="http://openclipart.org/">
            <dc:title>Openclipart</dc:title>
          </cc:Agent>
        </dc:publisher>
        <dc:title>Mouse Cursor - Arrow</dc:title>
        <dc:date>2011-12-20T04:30:04</dc:date>
        <dc:description>A pixel-art style arrow mouse cursor. Made up of individual squares, for easy manipulation</dc:description>
        <dc:source>http://openclipart.org/detail/166356/mouse-cursor---arrow-by-hellocatfood</dc:source>
        <dc:creator>
          <cc:Agent>
            <dc:title>hellocatfood</dc:title>
          </cc:Agent>
        </dc:creator>
        <dc:subject>
          <rdf:Bag>
            <rdf:li>arrow</rdf:li>
            <rdf:li>clip art</rdf:li>
            <rdf:li>clipart</rdf:li>
            <rdf:li>cursor</rdf:li>
            <rdf:li>mouse</rdf:li>
            <rdf:li>pixel</rdf:li>
          </rdf:Bag>
        </dc:subject>
      </cc:Work>
      <cc:License rdf:about="http://creativecommons.org/licenses/publicdomain/">
        <cc:permits rdf:resource="http://creativecommons.org/ns#Reproduction"/>
        <cc:permits rdf:resource="http://creativecommons.org/ns#Distribution"/>
        <cc:permits rdf:resource="http://creativecommons.org/ns#DerivativeWorks"/>
      </cc:License>
    </rdf:RDF>
  </metadata>
</svg>
